<svg width="68" height="68" viewBox="0 0 68 68" fill="none" xmlns="http://www.w3.org/2000/svg">
<rect width="68" height="68" rx="12" fill="white"/>
<path d="M33.7 13.71H34.305C35.2217 13.71 35.8083 13.82 36.065 14.04C36.3583 14.26 36.5417 14.4067 36.615 14.48C36.725 14.5167 36.8533 14.6633 37 14.92C37.1833 15.1767 37.2933 15.3417 37.33 15.415C37.4033 15.4883 37.5317 15.7083 37.715 16.075C37.8983 16.4417 38.0267 16.68 38.1 16.79C42.61 24.9667 46.7717 35.4533 50.585 48.25C50.695 48.69 50.75 49.1117 50.75 49.515C50.75 50.505 50.1817 51 49.045 51H47.725C47.1017 51 46.6617 50.89 46.405 50.67C46.185 50.45 46.02 50.285 45.91 50.175C45.8 50.065 45.69 49.8633 45.58 49.57C45.47 49.24 45.3967 49.0017 45.36 48.855C45.25 48.635 44.8833 47.3883 44.26 45.115C43.6733 42.805 43.0133 40.5867 42.28 38.46H25.67C24.7533 41.2833 24.0383 43.685 23.525 45.665C23.0117 47.645 22.7183 48.7083 22.645 48.855C22.6083 49.0017 22.535 49.24 22.425 49.57C22.315 49.8633 22.205 50.065 22.095 50.175C21.985 50.285 21.8383 50.4133 21.655 50.56C21.3617 50.8533 20.9033 51 20.28 51H18.96C17.7867 51 17.2 50.505 17.2 49.515C17.2 49.2583 17.2733 48.8367 17.42 48.25C21.2333 35.4533 25.395 24.9667 29.905 16.79C29.9783 16.68 30.1067 16.4417 30.29 16.075C30.4733 15.7083 30.5833 15.4883 30.62 15.415C30.6933 15.3417 30.8033 15.1767 30.95 14.92C31.1333 14.6633 31.2617 14.5167 31.335 14.48C31.445 14.4067 31.5917 14.2967 31.775 14.15C31.9583 14.0033 32.1233 13.9117 32.27 13.875C32.7833 13.765 33.26 13.71 33.7 13.71ZM33.975 18.935C31.5917 23.1517 29.2817 28.34 27.045 34.5H40.96C39.64 30.87 37.3117 25.6817 33.975 18.935Z" fill="#3E6FF4"/>
</svg>
